<svg viewBox="0 0 1200 675" xmlns="http://www.w3.org/2000/svg" role="img" aria-label="AISkillBench">
  <defs>
    <linearGradient id="a" x1="0" y1="0" x2="1" y2="1">
      <stop offset="0" stop-color="#22d3ee"/><stop offset="1" stop-color="#a855f7"/>
    </linearGradient>
    <radialGradient id="glow" cx="0.66" cy="0.28" r="0.85">
      <stop offset="0" stop-color="#22d3ee" stop-opacity="0.4"/><stop offset="1" stop-color="#22d3ee" stop-opacity="0"/>
    </radialGradient>
    <radialGradient id="glow2" cx="0.2" cy="0.85" r="0.7">
      <stop offset="0" stop-color="#a855f7" stop-opacity="0.28"/><stop offset="1" stop-color="#a855f7" stop-opacity="0"/>
    </radialGradient>
    <pattern id="grid" width="40" height="40" patternUnits="userSpaceOnUse">
      <path d="M40 0H0V40" fill="none" stroke="#ffffff" stroke-opacity="0.045" stroke-width="1"/>
    </pattern>
  </defs>
  <rect width="1200" height="675" fill="#090a12"/>
  <rect width="1200" height="675" fill="url(#grid)"/>
  <rect width="1200" height="675" fill="url(#glow)"/>
  <rect width="1200" height="675" fill="url(#glow2)"/>
  <g transform="translate(0,-26)"><line x1="390" y1="300" x2="530" y2="300" stroke="url(#a)" stroke-width="3" stroke-opacity="0.5"/><line x1="530" y1="300" x2="670" y2="300" stroke="url(#a)" stroke-width="3" stroke-opacity="0.5"/><line x1="670" y1="300" x2="810" y2="300" stroke="url(#a)" stroke-width="3" stroke-opacity="0.5"/><circle cx="390" cy="300" r="34" fill="url(#a)" opacity="0.12"/><circle cx="390" cy="300" r="20" fill="none" stroke="url(#a)" stroke-width="3"/><circle cx="390" cy="300" r="11" fill="url(#a)" opacity="0.35"/><circle cx="530" cy="300" r="40" fill="url(#a)" opacity="0.12"/><circle cx="530" cy="300" r="26" fill="none" stroke="url(#a)" stroke-width="3"/><circle cx="530" cy="300" r="17" fill="url(#a)" opacity="0.53"/><circle cx="670" cy="300" r="46" fill="url(#a)" opacity="0.12"/><circle cx="670" cy="300" r="32" fill="none" stroke="url(#a)" stroke-width="3"/><circle cx="670" cy="300" r="23" fill="url(#a)" opacity="0.71"/><circle cx="810" cy="300" r="54" fill="url(#a)" opacity="0.12"/><circle cx="810" cy="300" r="40" fill="none" stroke="url(#a)" stroke-width="3"/><circle cx="810" cy="300" r="31" fill="url(#a)" opacity="0.89"/><path d="M798 300 l8 9 l16 -18" fill="none" stroke="#0a0b14" stroke-width="4" stroke-linecap="round" stroke-linejoin="round"/></g>
  <g transform="translate(600,96)">
    <rect x="-109.5" y="-19" width="219.0" height="38" rx="19" fill="#0d1020" stroke="url(#a)" stroke-width="1.5"/>
    <text x="0" y="6" text-anchor="middle" font-family="'Cascadia Code', 'Consolas', 'SF Mono', ui-monospace, monospace" font-size="17" letter-spacing="2" fill="#cfe9ff">EDTECH · LIVE</text>
  </g>
  <text x="600" y="540" text-anchor="middle" font-family="'Segoe UI', system-ui, -apple-system, 'Helvetica Neue', Arial, sans-serif" font-size="74" font-weight="800" letter-spacing="-1" fill="#ffffff">AISkillBench</text>
  <rect x="0" y="670" width="1200" height="5" fill="url(#a)"/>
</svg>